<?xml version="1.0" encoding="utf-8"?>
<!-- Generator: Adobe Illustrator 24.0.2, SVG Export Plug-In . SVG Version: 6.00 Build 0)  -->
<svg version="1.1" id="Layer_1" xmlns="http://www.w3.org/2000/svg" xmlns:xlink="http://www.w3.org/1999/xlink" x="0px" y="0px"
	 viewBox="0 0 841.9 595.3" style="enable-background:new 0 0 841.9 595.3;" xml:space="preserve">
<style type="text/css">
	.st0{fill:#61DAFB;}
</style>
<g>
	<path class="st0" d="M740.8,296.5c0-42.4-53.1-82.5-134.4-107.4c18.8-82.9,10.4-148.9-26.3-170c-8.5-5-18.4-7.3-29.2-7.3v29.1
		c6,0,10.8,1.2,14.9,3.4c17.7,10.2,25.4,48.9,19.4,98.7c-1.4,12.3-3.8,25.2-6.6,38.3c-25.6-6.3-53.4-11.1-82.8-14.2
		c-17.6-24.1-35.8-46-54.2-65.2C484,62.4,523.9,40.8,551,40.8V11.7c-35.8,0-82.8,25.6-130.2,69.9c-47.5-44.1-94.4-69.4-130.2-69.4
		v29.1c27,0,67,21.5,109.5,60.7c-18.3,19.2-36.5,40.9-53.8,65c-29.5,3.1-57.4,8-82.9,14.3c-3-13-5.2-25.7-6.8-37.8
		c-6.1-49.8,1.4-88.5,19-98.8c3.9-2.3,9-3.4,15-3.4V12.3c-11,0-20.9,2.3-29.5,7.3c-36.6,21.1-44.8,86.9-25.9,169.6
		c-81.1,25-133.9,65-133.9,107.3c0,42.4,53.1,82.5,134.4,107.4c-18.8,82.9-10.4,148.9,26.3,170c8.5,5,18.4,7.3,29.3,7.3
		c35.8,0,82.8-25.6,130.2-69.9c47.5,44.1,94.4,69.4,130.2,69.4c11,0,20.9-2.3,29.5-7.3c36.6-21.1,44.8-86.9,25.9-169.6
		C688,378.9,740.8,338.8,740.8,296.5L740.8,296.5z M571,209.6c-4.8,16.8-10.8,34.2-17.6,51.5c-5.3-10.4-11-20.9-17.1-31.3
		c-6-10.4-12.4-20.6-18.8-30.5C536.1,202,554,205.4,571,209.6L571,209.6z M511.3,348.4c-10.2,17.6-20.6,34.3-31.4,49.8
		c-19.4,1.7-39.1,2.6-58.9,2.6c-19.7,0-39.4-0.9-58.7-2.5c-10.8-15.5-21.4-32.1-31.5-49.5c-9.9-17.1-18.9-34.4-27.1-51.9
		c8.1-17.5,17.2-34.9,27-52c10.2-17.6,20.6-34.3,31.4-49.8c19.4-1.7,39.1-2.6,58.9-2.6c19.7,0,39.4,0.9,58.7,2.5
		c10.8,15.5,21.4,32.1,31.5,49.5c9.9,17.1,18.9,34.4,27.1,51.9C530.1,313.9,521.1,331.3,511.3,348.4L511.3,348.4z M553.4,331.5
		c7,17.5,13,34.9,18,51.9c-17.1,4.2-35.1,7.7-53.7,10.4c6.4-10,12.8-20.3,18.8-30.9C542.5,352.4,548.1,341.9,553.4,331.5
		L553.4,331.5z M421.3,470.5C409.1,458,397,444.1,385,428.8c11.7,0.5,23.7,0.9,35.8,0.9c12.3,0,24.4-0.3,36.2-0.9
		C445.4,444.1,433.3,458,421.3,470.5z M324.3,393.8c-18.5-2.7-36.4-6.1-53.4-10.3c4.8-16.8,10.8-34.2,17.6-51.5
		c5.3,10.4,11,20.9,17.1,31.3C311.6,373.7,317.9,383.9,324.3,393.8z M420.6,122.5c12.1,12.5,24.2,26.5,36.2,41.7
		c-11.7-0.5-23.7-0.9-35.8-0.9c-12.3,0-24.4,0.3-36.2,0.9C396.5,148.9,408.6,135,420.6,122.5z M324.1,199.3
		c-6.4,10-12.8,20.3-18.8,30.9c-6,10.4-11.6,20.9-16.9,31.3c-7-17.5-13-34.9-18-51.9C287.5,205.5,305.5,202,324.1,199.3L324.1,199.3
		z M206.2,362.5c-46.1-19.7-76-45.5-76-66s29.9-46.4,76-66c11.2-4.8,23.5-9.1,36.1-13.2c7.4,25.6,17.2,52.1,29.3,79.4
		c-12,27.1-21.6,53.6-28.9,79C229.8,371.7,217.5,367.3,206.2,362.5L206.2,362.5z M276.3,548.8c-17.7-10.2-25.4-48.9-19.4-98.7
		c1.4-12.3,3.8-25.2,6.6-38.3c25.6,6.3,53.4,11.1,82.8,14.2c17.6,24.1,35.8,46,54.2,65.2c-42.5,39.5-82.4,61.1-109.5,61.1
		C285.2,552.1,280.2,551,276.3,548.8L276.3,548.8z M585.5,449.4c6.1,49.8-1.4,88.5-19,98.8c-3.9,2.3-9,3.4-15,3.4
		c-27,0-67-21.5-109.5-60.7c18.3-19.2,36.5-40.9,53.8-65c29.5-3.1,57.4-8,82.9-14.3C581.7,424.7,584.1,437.3,585.5,449.4z
		 M635.7,362.5c-11.2,4.8-23.5,9.1-36.1,13.2c-7.4-25.6-17.2-52.1-29.3-79.4c12-27.1,21.6-53.6,28.9-79c12.9,4,25.2,8.5,36.6,13.3
		c46.1,19.7,76,45.5,76,66C711.7,317,681.8,342.9,635.7,362.5L635.7,362.5z"/>
	<circle class="st0" cx="420.9" cy="296.5" r="59.6"/>
	<path class="st0" d="M550.7,11.8"/>
</g>
</svg>
